{"title":"Vanishing on 7th Street 2010 BDrip English/Dutch Klam","uid":6406464,"size":1582246349,"categoryP":"video","categoryS":"movies","magnet":"?xt=urn:btih:845ee5149ae4fecda12bad4fbfab58accd1e2e1c&amp;dn=Vanishing+on+7th+Street+2010+BDrip+English%2FDutch+Klam&amp;tr=udp%3A%2F%2Ftracker.openbittorrent.com%3A80&amp;tr=udp%3A%2F%2Fopen.demonii.com%3A1337&amp;tr=udp%3A%2F%2Ftracker.coppersurfer.tk%3A6969&amp;tr=udp%3A%2F%2Fexodus.desync.com%3A6969","seeders":4,"leechers":0,"uploader":"Klambake","files":-1,"time":1305822550,"description":"With: Thandie Newton, Hayden Christensen and John Leguizamo\n\nDoor een mysterieuze en globale zonsverduistering verdwijnen ontelbare bevolkingsgroepen van de aardbodem waarbij alleen hun kleding en bezittingen achterblijven. Een handjevol overlevenden, een verslaggever (Hayden Christensen), een fysiotherapeut (Thandie Newton) en een filmoperateur(John Leguizamo), zitten gezamenlijk in een zwak verlichte bar op 7th Street. Ze moeten de handen inÃƒÂ©ÃƒÂ©n slaan in een poging de strijd aan te gaan tegen de apocalyptische verschrikkingen. Als de duisternis langzaam intreedt realiseren ze zich dat ze misschien wel de laatste mensen op aarde zijn.\n\nWhen a massive power outage plunges the city of Detroit into total darkness, a disparate group of individuals find themselves alone. The entire city's population has vanished into thin air, leaving behind heaps of empty clothing, abandoned cars and lengthening shadows. Soon the daylight begins to disappear completely, and as the survivors gather in an abandoned tavern, they realize the darkness is out to get them, and only their rapidly diminishing light sources can keep them safe.\n\nGeneral:\n\nComplete name                    : Vanishing On 7th Street\\Vanishing On 7th Street.avi\nFormat                           : AVI\nFormat/Info                      : Audio Video Interleave\nFile size                        : 1.47 GiB\nDuration                         : 1h 31mn\nOverall bit rate                 : 2 312 Kbps\nWriting application              : Nandub v1.0rc2\nWriting library                  : Nandub build 1853/release\n\nVideo:\n\nFormat                           : MPEG-4 Visual\nFormat profile                   : Advanced Simple@L5\nFormat settings, BVOP            : Yes\nFormat settings, QPel            : Yes\nFormat settings, GMC             : No warppoints\nFormat settings, Matrix          : Default (H.263)\nMuxing mode                      : Packed bitstream\nCodec ID                         : XVID\nCodec ID/Hint                    : XviD\nDuration                         : 1h 31mn\nBit rate                         : 1 854 Kbps\nWidth                            : 720 pixels\nHeight                           : 304 pixels\nDisplay aspect ratio             : 2.40:1\nFrame rate                       : 23.976 fps\nColor space                      : YUV\nChroma subsampling               : 4:2:0\nBit depth                        : 8 bits\nScan type                        : Progressive\nBits/(Pixel*Frame)               : 0.353\nStream size                      : 1.18 GiB (80%)\nWriting library                  : XviD 1.2.1 (UTC 2008-12-04)\n\nAudio:\n\nFormat                           : AC-3\nFormat/Info                      : Audio Coding 3\nMode extension                   : CM (complete main)\nCodec ID                         : 2000\nDuration                         : 1h 31mn\nBit rate mode                    : Constant\nBit rate                         : 448 Kbps\nChannel(s)                       : 6 channels\nChannel positions                : Front: L C R, Side: L R, LFE\nSampling rate                    : 48.0 KHz\nBit depth                        : 16 bits\nStream size                      : 292 MiB (19%)\nAlignment                        : Split accross interleaves\nInterleave, duration             : 42 ms (1.00 video frame)\nInterleave, preload duration     : 500 ms\n\n","torrent":{"xt":"urn:btih:845ee5149ae4fecda12bad4fbfab58accd1e2e1c","amp;dn":"Vanishing+on+7th+Street+2010+BDrip+English%2FDutch+Klam","amp;tr":["udp%3A%2F%2Ftracker.openbittorrent.com%3A80","udp%3A%2F%2Fopen.demonii.com%3A1337","udp%3A%2F%2Ftracker.coppersurfer.tk%3A6969","udp%3A%2F%2Fexodus.desync.com%3A6969"],"infoHash":"845ee5149ae4fecda12bad4fbfab58accd1e2e1c","infoHashBuffer":{"type":"Buffer","data":[132,94,229,20,154,228,254,205,161,43,173,79,191,171,88,172,205,30,46,28]},"announce":[],"urlList":[]}}